<svg xmlns="http://www.w3.org/2000/svg" width="10.651" height="13.312" viewBox="0 0 10.651 13.312">
  <g id="ubicacion" transform="translate(0 0)">
    <g id="Grupo_5" data-name="Grupo 5">
      <path id="Trazado_3" data-name="Trazado 3" d="M16.376,15.156a1.336,1.336,0,1,0-.939-.391A1.28,1.28,0,0,0,16.376,15.156Zm0,4.893a18.191,18.191,0,0,0,3.01-3.385,5.187,5.187,0,0,0,.981-2.7,4.013,4.013,0,0,0-1.158-2.968A3.856,3.856,0,0,0,16.37,9.835a3.856,3.856,0,0,0-2.838,1.158,4.013,4.013,0,0,0-1.158,2.968,5.172,5.172,0,0,0,.981,2.7,18.357,18.357,0,0,0,3.01,3.385Zm0,1.763a22.1,22.1,0,0,1-4-4.236,6.592,6.592,0,0,1-1.325-3.62,5.145,5.145,0,0,1,1.607-3.975,5.409,5.409,0,0,1,7.438,0A5.145,5.145,0,0,1,21.7,13.956a6.592,6.592,0,0,1-1.325,3.62A22.253,22.253,0,0,1,16.376,21.812Z" transform="translate(-11.05 -8.5)" fill="#fff"/>
    </g>
  </g>
</svg>
