<svg id="Capa_1" data-name="Capa 1" xmlns="http://www.w3.org/2000/svg" width="25.52" height="25.52" viewBox="0 0 25.52 25.52">
  <g id="Grupo_8" data-name="Grupo 8">
    <path id="Trazado_5" data-name="Trazado 5" d="M12.76,6.09a6.68,6.68,0,1,0,6.68,6.68,6.679,6.679,0,0,0-6.68-6.68Zm0,11.13a4.45,4.45,0,1,1,4.45-4.45,4.447,4.447,0,0,1-4.45,4.45Z" fill="#fff"/>
    <path id="Trazado_6" data-name="Trazado 6" d="M19.68,4.63a1.21,1.21,0,1,0,1.21,1.21A1.208,1.208,0,0,0,19.68,4.63Z" fill="#fff"/>
    <path id="Trazado_7" data-name="Trazado 7" d="M24.76,3.8A6.977,6.977,0,0,0,21.72.76C20.23,0,18.28,0,14.38,0H11.13C7.23,0,5.29,0,3.8.76A6.977,6.977,0,0,0,.76,3.8h0C0,5.3,0,7.25,0,11.14v3.25c0,3.9,0,5.84.76,7.33A6.977,6.977,0,0,0,3.8,24.76c1.49.76,3.44.76,7.34.76h3.25c3.9,0,5.84,0,7.33-.76a6.977,6.977,0,0,0,3.04-3.04c.76-1.49.76-3.44.76-7.34V11.13c0-3.9,0-5.84-.76-7.33ZM23.2,14.4c0,1.99,0,3.34-.09,4.38a5.2,5.2,0,0,1-.42,1.9,4.632,4.632,0,0,1-2.03,2.03,5,5,0,0,1-1.9.42c-1.04.09-2.39.09-4.38.09H11.13c-1.99,0-3.34,0-4.38-.09a5.2,5.2,0,0,1-1.9-.42,4.632,4.632,0,0,1-2.03-2.03,5,5,0,0,1-.42-1.9c-.09-1.04-.09-2.39-.09-4.38V11.15c0-1.99,0-3.34.09-4.38a5.2,5.2,0,0,1,.42-1.9A4.632,4.632,0,0,1,4.85,2.84a5,5,0,0,1,1.9-.42c1.04-.09,2.39-.09,4.38-.09h3.25c1.99,0,3.34,0,4.38.09a5.2,5.2,0,0,1,1.9.42,4.632,4.632,0,0,1,2.03,2.03,5,5,0,0,1,.42,1.9c.09,1.04.09,2.39.09,4.38V14.4Z" fill="#fff"/>
  </g>
</svg>
