<svg xmlns="http://www.w3.org/2000/svg" width="13.312" height="13.312" viewBox="0 0 13.312 13.312">
  <g id="instagram" transform="translate(0 0)">
    <g id="Grupo_6" data-name="Grupo 6">
      <path id="Trazado_11" data-name="Trazado 11" d="M18.064,21.549a3.484,3.484,0,1,0-3.484-3.484A3.484,3.484,0,0,0,18.064,21.549Zm0-1.163a2.321,2.321,0,1,0-2.321-2.321h0A2.32,2.32,0,0,0,18.064,20.386Z" transform="translate(-11.409 -11.403)" fill="#fff" fill-rule="evenodd"/>
      <path id="Trazado_12" data-name="Trazado 12" d="M27.6,13.12a.631.631,0,1,0,.631.631A.63.63,0,0,0,27.6,13.12Z" transform="translate(-17.336 -10.705)" fill="#fff"/>
      <path id="Trazado_13" data-name="Trazado 13" d="M8.9,10.477c-.4.777-.4,1.794-.4,3.823V16c0,2.034,0,3.046.4,3.823a3.639,3.639,0,0,0,1.586,1.586c.777.4,1.794.4,3.829.4h1.7c2.034,0,3.046,0,3.823-.4a3.639,3.639,0,0,0,1.586-1.586c.4-.777.4-1.794.4-3.829V14.3c0-2.034,0-3.046-.4-3.823a3.639,3.639,0,0,0-1.586-1.586c-.777-.4-1.794-.4-3.829-.4h-1.7c-2.034,0-3.046,0-3.823.4A3.639,3.639,0,0,0,8.9,10.472ZM16,9.705h-1.7c-1.038,0-1.742,0-2.285.047a2.608,2.608,0,0,0-.991.219A2.416,2.416,0,0,0,9.971,11.03a2.71,2.71,0,0,0-.219.991c-.047.542-.047,1.247-.047,2.285V16c0,1.038,0,1.742.047,2.285a2.608,2.608,0,0,0,.219.991,2.416,2.416,0,0,0,1.059,1.059,2.71,2.71,0,0,0,.991.219c.542.047,1.247.047,2.285.047H16c1.038,0,1.742,0,2.285-.047a2.608,2.608,0,0,0,.991-.219,2.416,2.416,0,0,0,1.059-1.059,2.71,2.71,0,0,0,.219-.991c.047-.542.047-1.247.047-2.285v-1.7c0-1.038,0-1.742-.047-2.285a2.608,2.608,0,0,0-.219-.991,2.416,2.416,0,0,0-1.059-1.059,2.71,2.71,0,0,0-.991-.219C17.743,9.705,17.039,9.705,16,9.705Z" transform="translate(-8.5 -8.49)" fill="#fff" fill-rule="evenodd"/>
    </g>
  </g>
</svg>
