<?xml version="1.0" encoding="UTF-8"?>
<svg id="Capa_2" data-name="Capa 2" xmlns="http://www.w3.org/2000/svg" viewBox="0 0 437.43 94.02">
  <defs>
    <style>
      .cls-1 {
        letter-spacing: .02em;
      }

      .cls-2 {
        letter-spacing: 0em;
      }

      .cls-3, .cls-4 {
        fill: #fff;
      }

      .cls-4 {
        font-family: FlexoSoft-DemiIt, FlexoSoft;
        font-size: 43.99px;
        font-style: italic;
        font-weight: 300;
      }

      .cls-5 {
        letter-spacing: .02em;
      }

      .cls-6 {
        fill: #e52918;
      }

      .cls-7 {
        letter-spacing: 0em;
      }

      .cls-8 {
        letter-spacing: .02em;
      }

      .cls-9 {
        letter-spacing: .02em;
      }

      .cls-10 {
        letter-spacing: 0em;
      }

      .cls-11 {
        letter-spacing: 0em;
      }
    </style>
  </defs>
  <g id="Capa_1-2" data-name="Capa 1">
    <g>
      <text class="cls-4" transform="translate(145.27 83.2)"><tspan class="cls-5" x="0" y="0">A</tspan><tspan class="cls-9" x="29.61" y="0">u</tspan><tspan class="cls-7" x="55.81" y="0">t</tspan><tspan class="cls-2" x="71.86" y="0">o</tspan><tspan class="cls-11" x="97.28" y="0">w</tspan><tspan class="cls-1" x="133.3" y="0">o</tspan><tspan class="cls-10" x="159.25" y="0">r</tspan><tspan class="cls-8" x="174.4" y="0">k</tspan></text>
      <g>
        <path class="cls-6" d="M33.63,0c-1.14,0-2.64.75-3.33,1.66L.35,41.34c-.69.91-.32,1.66.83,1.66h34.79c1.14,0,2.64-.75,3.33-1.66L69.28,1.67c.69-.91.32-1.66-.83-1.66h-34.82Z"/>
        <path class="cls-6" d="M95.98,1.66c.69-.91.32-1.66-.83-1.66h-16.35c-1.14,0-2.64.75-3.33,1.66l-29.97,39.68c-.69.91-.32,1.66.83,1.66h16.36c1.14,0,2.64-.75,3.33-1.66L95.98,1.66Z"/>
        <path class="cls-6" d="M105.81,0c-1.14,0-2.64.75-3.33,1.66l-29.97,39.68c-.69.91-.32,1.66.83,1.66h12.47c1.14,0,2.64-.75,3.33-1.66L119.11,1.66C119.8.75,119.42,0,118.28,0h-12.47Z"/>
        <path class="cls-6" d="M97.46,41.35c-.69.91-.32,1.66.83,1.66h8.59c1.14-.01,2.64-.76,3.33-1.67L140.16,1.67c.69-.91.32-1.66-.82-1.66h-8.59c-1.14-.01-2.64.73-3.33,1.65l-29.96,39.69Z"/>
        <path class="cls-6" d="M119.8,41.34c-.69.91-.32,1.66.82,1.66h6.24c1.14,0,2.64-.74,3.33-1.66L160.14,1.81c.69-.91.32-1.66-.82-1.66h-6.21c-1.14,0-2.64.75-3.33,1.66l-29.98,39.53Z"/>
        <path class="cls-3" d="M237.26.17h-64.43c-1.14-.01-2.64.73-3.33,1.64l-29.95,39.54c-.69.91-.32,1.66.82,1.65h14.55c1.14-.01,2.64-.76,3.33-1.67l4.78-6.31c.69-.91,2.19-1.66,3.33-1.66h55.32c1.15-.01,2.08.92,2.08,2.06v5.48c0,1.15.93,2.08,2.08,2.08h11.42c1.15,0,2.08-.92,2.08-2.07V2.25c0-1.15-.93-2.07-2.08-2.08ZM221.69,21.87h-46.65c-1.14.01-1.51-.73-.83-1.65l5.55-7.36c.69-.91,2.18-1.66,3.33-1.66h38.59c1.15,0,2.08.93,2.08,2.08v6.51c0,1.15-.92,2.07-2.07,2.08Z"/>
        <path class="cls-3" d="M247.04,40.92c0,1.15.93,2.07,2.08,2.08h11.42c1.15,0,2.08-.93,2.08-2.08v-21.85c.01-1.14.82-1.6,1.8-1.02l21.62,12.75c.98.58,2.73,1.06,3.87,1.05h8.3c1.14-.01,2.88-.49,3.87-1.07l21.62-12.73c.99-.58,1.79-.12,1.79,1.02v21.83c-.01,1.15.92,2.07,2.06,2.08h11.44c1.15,0,2.07-.93,2.08-2.08V2.25c0-1.15-.93-2.07-2.08-2.08h-11.42c-1.14-.01-2.86.49-3.82,1.12l-27.92,18.05c-.96.62-2.53.62-3.49,0l-27.95-18.05c-.96-.62-2.68-1.13-3.82-1.13h-11.44c-1.15.02-2.07.94-2.08,2.09v38.67Z"/>
        <path class="cls-3" d="M348.86,40.92c0,1.15.93,2.07,2.08,2.08h84.42c1.15,0,2.07-.93,2.08-2.08v-21.4c0-1.15-.93-2.08-2.08-2.08h-41.56c-1.15-.01-2.07.92-2.07,2.06v4.15c.01,1.15.94,2.08,2.09,2.08l25.97.02c1.15,0,2.07.93,2.08,2.08v2.2c0,1.15-.93,2.07-2.08,2.08h-53.25c-1.15-.02-2.07-.95-2.08-2.09V13.15c0-1.15.93-2.07,2.08-2.08h68.83c1.15-.02,2.07-.95,2.08-2.09V2.24c0-1.15-.93-2.07-2.08-2.08h-84.42c-1.15.02-2.07.95-2.08,2.09v38.67Z"/>
      </g>
      <path class="cls-3" d="M25.56,60.44l2.22,6.82h7.17c.56,0,.79.71.34,1.04l-5.8,4.21,2.22,6.82c.17.53-.43.97-.88.64l-5.8-4.21-5.8,4.21c-.45.33-1.05-.11-.88-.64l2.22-6.82-5.8-4.21c-.45-.33-.22-1.04.34-1.04h7.17s2.22-6.82,2.22-6.82c.17-.53.92-.53,1.09,0Z"/>
      <path class="cls-3" d="M100.67,60.44l2.22,6.82h7.17c.56,0,.79.71.34,1.04l-5.8,4.21,2.22,6.82c.17.53-.43.97-.88.64l-5.8-4.21-5.8,4.21c-.45.33-1.05-.11-.88-.64l2.22-6.82-5.8-4.21c-.45-.33-.22-1.04.34-1.04h7.17s2.22-6.82,2.22-6.82c.17-.53.92-.53,1.09,0Z"/>
      <path class="cls-3" d="M75.63,60.44l2.22,6.82h7.17c.56,0,.79.71.34,1.04l-5.8,4.21,2.22,6.82c.17.53-.43.97-.88.64l-5.8-4.21-5.8,4.21c-.45.33-1.05-.11-.88-.64l2.22-6.82-5.8-4.21c-.45-.33-.22-1.04.34-1.04h7.17s2.22-6.82,2.22-6.82c.17-.53.92-.53,1.09,0Z"/>
      <path class="cls-3" d="M125.7,60.44l2.22,6.82h7.17c.56,0,.79.71.34,1.04l-5.8,4.21,2.22,6.82c.17.53-.43.97-.88.64l-5.8-4.21-5.8,4.21c-.45.33-1.05-.11-.88-.64l2.22-6.82-5.8-4.21c-.45-.33-.22-1.04.34-1.04h7.17s2.22-6.82,2.22-6.82c.17-.53.92-.53,1.09,0Z"/>
      <path class="cls-3" d="M50.6,60.44l2.22,6.82h7.17c.56,0,.79.71.34,1.04l-5.8,4.21,2.22,6.82c.17.53-.43.97-.88.64l-5.8-4.21-5.8,4.21c-.45.33-1.05-.11-.88-.64l2.22-6.82-5.8-4.21c-.45-.33-.22-1.04.34-1.04h7.17s2.22-6.82,2.22-6.82c.17-.53.92-.53,1.09,0Z"/>
    </g>
  </g>
</svg>