<svg xmlns="http://www.w3.org/2000/svg" width="13.305" height="13.309" viewBox="0 0 13.305 13.309">
  <g id="whatsapp2" transform="translate(0 0)">
    <g id="Grupo_13" data-name="Grupo 13">
      <g id="Grupo_12" data-name="Grupo 12">
        <path id="Trazado_24" data-name="Trazado 24" d="M21.554,19.574s-1-.49-1.168-.553a.67.67,0,0,0-.224-.052.388.388,0,0,0-.329.193c-.1.146-.391.485-.48.589-.01.016-.026.031-.037.031a2.138,2.138,0,0,1-.2-.083,5.139,5.139,0,0,1-1.94-1.721.11.11,0,0,1-.016-.037.359.359,0,0,1,.057-.068c.052-.052.11-.12.167-.188l.078-.094a1.123,1.123,0,0,0,.156-.25l.021-.042a.445.445,0,0,0-.016-.428c-.021-.047-.428-1.033-.475-1.137-.1-.25-.245-.365-.433-.365H16.64a2.316,2.316,0,0,0-.809.209,1.678,1.678,0,0,0-.626,1.434,3.114,3.114,0,0,0,.673,1.706l.026.042a6.315,6.315,0,0,0,2.712,2.352,4.342,4.342,0,0,0,1.638.417h0a2.434,2.434,0,0,0,.271-.016h.047a1.748,1.748,0,0,0,1.2-.855,1.35,1.35,0,0,0,.078-.882.594.594,0,0,0-.287-.2Z" transform="translate(-11.712 -11.922)" fill="#fff"/>
        <path id="Trazado_25" data-name="Trazado 25" d="M15.282,8.765a6.519,6.519,0,0,0-6.536,6.489,6.406,6.406,0,0,0,.9,3.276L8.522,21.842a.175.175,0,0,0,.11.219.178.178,0,0,0,.1,0l3.453-1.1A6.5,6.5,0,1,0,15.282,8.76Zm0,11.622a5.164,5.164,0,0,1-2.848-.85.18.18,0,0,0-.146-.021l-1.732.548.558-1.648a.17.17,0,0,0-.026-.156,5.071,5.071,0,0,1-.986-3.01,5.177,5.177,0,1,1,5.221,5.133h-.042Z" transform="translate(-8.512 -8.76)" fill="#fff"/>
      </g>
    </g>
  </g>
</svg>
