<svg xmlns="http://www.w3.org/2000/svg" width="25.508" height="25.505" viewBox="0 0 25.508 25.505">
  <g id="Capa_1" data-name="Capa 1" transform="translate(-0.002 0)">
    <g id="Grupo_11" data-name="Grupo 11">
      <path id="Trazado_22" data-name="Trazado 22" d="M18.9,14.66h-.02s-1.91-.94-2.24-1.06a1.284,1.284,0,0,0-.43-.1.744.744,0,0,0-.63.37c-.19.28-.75.93-.92,1.13-.02.03-.05.06-.07.06a4.1,4.1,0,0,1-.39-.16,9.852,9.852,0,0,1-3.72-3.3.212.212,0,0,1-.03-.07.689.689,0,0,1,.11-.13c.1-.1.21-.23.32-.36l.15-.18a2.153,2.153,0,0,0,.3-.48l.04-.08a.854.854,0,0,0-.03-.82c-.04-.09-.82-1.98-.91-2.18-.2-.48-.47-.7-.83-.7H9.46A4.44,4.44,0,0,0,7.91,7a3.217,3.217,0,0,0-1.2,2.75A5.969,5.969,0,0,0,8,13.02l.05.08a12.106,12.106,0,0,0,5.2,4.51,8.325,8.325,0,0,0,3.14.8,4.666,4.666,0,0,0,.52-.03H17a3.352,3.352,0,0,0,2.3-1.64,2.589,2.589,0,0,0,.15-1.69,1.14,1.14,0,0,0-.55-.39Z" fill="#fff"/>
      <path id="Trazado_23" data-name="Trazado 23" d="M12.98,0A12.5,12.5,0,0,0,.45,12.44a12.281,12.281,0,0,0,1.72,6.28L.02,25.07a.336.336,0,0,0,.21.42.34.34,0,0,0,.2,0l6.62-2.1A12.552,12.552,0,0,0,25.51,12.43,12.5,12.5,0,0,0,12.98,0Zm0,22.27h0a9.81,9.81,0,0,1-5.46-1.62.346.346,0,0,0-.28-.04L3.92,21.66,4.99,18.5a.326.326,0,0,0-.05-.3,9.721,9.721,0,0,1-1.89-5.77,9.925,9.925,0,1,1,10.01,9.84h-.08Z" fill="#fff"/>
    </g>
  </g>
</svg>
